<svg xmlns="http://www.w3.org/2000/svg" width="62" height="62" viewBox="0 0 62 62" fill="none">
  <mask id="mask0_8131_2858" style="mask-type:alpha" maskUnits="userSpaceOnUse" x="0" y="0" width="62" height="62">
    <rect x="62" y="62" width="62" height="62" transform="rotate(180 62 62)" fill="#D9D9D9"/>
  </mask>
  <g mask="url(#mask0_8131_2858)">
    <path d="M29.2559 31.0002L37.1997 23.0564L33.583 19.3752L21.958 31.0002L33.583 42.6252L37.1997 38.9439L29.2559 31.0002ZM30.9997 5.16683C34.5733 5.16683 37.9316 5.84495 41.0747 7.2012C44.2177 8.55745 46.9518 10.3981 49.2768 12.7231C51.6018 15.0481 53.4424 17.7821 54.7986 20.9252C56.1549 24.0682 56.833 27.4265 56.833 31.0002C56.833 34.5738 56.1549 37.9321 54.7986 41.0752C53.4424 44.2182 51.6018 46.9522 49.2768 49.2772C46.9518 51.6022 44.2177 53.4429 41.0747 54.7991C37.9316 56.1554 34.5733 56.8335 30.9997 56.8335C27.4261 56.8335 24.0677 56.1554 20.9247 54.7991C17.7816 53.4429 15.0476 51.6022 12.7226 49.2772C10.3976 46.9522 8.55696 44.2182 7.20071 41.0752C5.84446 37.9321 5.16633 34.5738 5.16633 31.0002C5.16633 27.4266 5.84446 24.0682 7.20071 20.9252C8.55696 17.7821 10.3976 15.0481 12.7226 12.7231C15.0476 10.3981 17.7816 8.55746 20.9247 7.20121C24.0677 5.84495 27.4261 5.16683 30.9997 5.16683Z" fill="white" fill-opacity="0.8"/>
  </g>
</svg>