<svg xmlns="http://www.w3.org/2000/svg" width="24" height="24" viewBox="0 0 24 24" fill="none">
  <path d="M1 12C1 9.08262 2.15893 6.28473 4.22183 4.22183C6.28473 2.15893 9.08262 1 12 1C14.9174 1 17.7153 2.15893 19.7782 4.22183C21.8411 6.28473 23 9.08262 23 12C23 14.9174 21.8411 17.7153 19.7782 19.7782C17.7153 21.8411 14.9174 23 12 23C9.08262 23 6.28473 21.8411 4.22183 19.7782C2.15893 17.7153 1 14.9174 1 12ZM9.09102 7.3207C8.76445 7.50117 8.5625 7.84922 8.5625 8.21875V15.7812C8.5625 16.1551 8.76445 16.4988 9.09102 16.6793C9.41758 16.8598 9.81289 16.8555 10.1352 16.6578L16.3227 12.8766C16.6277 12.6875 16.8168 12.3566 16.8168 11.9957C16.8168 11.6348 16.6277 11.3039 16.3227 11.1148L10.1352 7.33359C9.81719 7.14023 9.41758 7.13164 9.09102 7.31211V7.3207Z" fill="#006073"/>
</svg>