<svg xmlns="http://www.w3.org/2000/svg" width="24" height="25" viewBox="0 0 24 25" fill="none">
  <g clip-path="url(#clip0_9720_3359)">
    <path d="M24 12.9082C24 6.28084 18.6274 0.908203 12 0.908203C5.37264 0.908203 0 6.28084 0 12.9082C0 18.5357 3.87456 23.258 9.10128 24.5549V16.5754H6.62688V12.9082H9.10128V11.328C9.10128 7.24372 10.9498 5.3506 14.9597 5.3506C15.72 5.3506 17.0318 5.49988 17.5685 5.64868V8.97268C17.2853 8.94292 16.7933 8.92804 16.1822 8.92804C14.2147 8.92804 13.4544 9.67348 13.4544 11.6112V12.9082H17.3741L16.7006 16.5754H13.4544V24.8204C19.3963 24.1028 24.0005 19.0436 24.0005 12.9082H24Z" fill="#49762A"/>
  </g>
  <defs>
    <clipPath id="clip0_9720_3359">
      <rect width="24" height="24" fill="white" transform="translate(0 0.908203)"/>
    </clipPath>
  </defs>
</svg>