<svg xmlns="http://www.w3.org/2000/svg" width="25" height="25" viewBox="0 0 25 25" fill="none">
  <g clip-path="url(#clip0_9720_3365)">
    <path d="M6.05865 8.62939H1.24061C1.02678 8.62939 0.853516 8.80274 0.853516 9.01649V24.4948C0.853516 24.7086 1.02678 24.8819 1.24061 24.8819H6.05865C6.27248 24.8819 6.44575 24.7086 6.44575 24.4948V9.01649C6.44575 8.80274 6.27248 8.62939 6.05865 8.62939Z" fill="#49762A"/>
    <path d="M3.65196 0.93457C1.89888 0.93457 0.472656 2.35924 0.472656 4.11039C0.472656 5.86231 1.89888 7.28752 3.65196 7.28752C5.40365 7.28752 6.82871 5.86223 6.82871 4.11039C6.82879 2.35924 5.40365 0.93457 3.65196 0.93457Z" fill="#49762A"/>
    <path d="M18.3149 8.24463C16.3798 8.24463 14.9493 9.0765 14.0817 10.0217V9.01642C14.0817 8.80267 13.9084 8.62933 13.6946 8.62933H9.08046C8.86662 8.62933 8.69336 8.80267 8.69336 9.01642V24.4947C8.69336 24.7085 8.86662 24.8818 9.08046 24.8818H13.888C14.1018 24.8818 14.2751 24.7085 14.2751 24.4947V16.8366C14.2751 14.2559 14.976 13.2506 16.7749 13.2506C18.7341 13.2506 18.8898 14.8623 18.8898 16.9693V24.4948C18.8898 24.7086 19.0631 24.8819 19.2769 24.8819H24.0862C24.3 24.8819 24.4733 24.7086 24.4733 24.4948V16.0047C24.4733 12.1674 23.7416 8.24463 18.3149 8.24463Z" fill="#49762A"/>
  </g>
  <defs>
    <clipPath id="clip0_9720_3365">
      <rect width="24" height="24" fill="white" transform="translate(0.472656 0.908203)"/>
    </clipPath>
  </defs>
</svg>