<svg xmlns="http://www.w3.org/2000/svg" width="17" height="23" viewBox="0 0 17 23" fill="none">
  <path d="M9.29241 22.4139C11.5024 19.6481 16.5428 12.9448 16.5428 9.17961C16.5428 4.6131 12.8379 0.908203 8.2714 0.908203C3.7049 0.908203 0 4.6131 0 9.17961C0 12.9448 5.04039 19.6481 7.2504 22.4139C7.78029 23.073 8.76252 23.073 9.29241 22.4139ZM8.2714 6.42247C9.00264 6.42247 9.70393 6.71296 10.221 7.23002C10.7381 7.74708 11.0285 8.44837 11.0285 9.17961C11.0285 9.91085 10.7381 10.6121 10.221 11.1292C9.70393 11.6463 9.00264 11.9367 8.2714 11.9367C7.54017 11.9367 6.83888 11.6463 6.32182 11.1292C5.80475 10.6121 5.51427 9.91085 5.51427 9.17961C5.51427 8.44837 5.80475 7.74708 6.32182 7.23002C6.83888 6.71296 7.54017 6.42247 8.2714 6.42247Z" fill="#49762A"/>
</svg>