<svg xmlns="http://www.w3.org/2000/svg" width="24" height="24" viewBox="0 0 24 24" fill="none">
  <path d="M0.5 3.75C0.5 2.2332 1.77298 1 3.33871 1H10.4355V6.5C10.4355 7.26055 11.0698 7.875 11.8548 7.875H17.5323V14.0625H8.30645C6.74073 14.0625 5.46774 15.2957 5.46774 16.8125V23H3.33871C1.77298 23 0.5 21.7668 0.5 20.25V3.75ZM17.5323 6.5H11.8548V1L17.5323 6.5ZM8.30645 16.125H9.72581C11.0964 16.125 12.2097 17.2035 12.2097 18.5312C12.2097 19.859 11.0964 20.9375 9.72581 20.9375H9.01613V22.3125C9.01613 22.6906 8.69677 23 8.30645 23C7.91613 23 7.59677 22.6906 7.59677 22.3125V20.25V16.8125C7.59677 16.4344 7.91613 16.125 8.30645 16.125ZM9.72581 19.5625C10.3157 19.5625 10.7903 19.1027 10.7903 18.5312C10.7903 17.9598 10.3157 17.5 9.72581 17.5H9.01613V19.5625H9.72581ZM13.9839 16.125H15.4032C16.5786 16.125 17.5323 17.0488 17.5323 18.1875V20.9375C17.5323 22.0762 16.5786 23 15.4032 23H13.9839C13.5935 23 13.2742 22.6906 13.2742 22.3125V16.8125C13.2742 16.4344 13.5935 16.125 13.9839 16.125ZM15.4032 21.625C15.7935 21.625 16.1129 21.3156 16.1129 20.9375V18.1875C16.1129 17.8094 15.7935 17.5 15.4032 17.5H14.6935V21.625H15.4032ZM18.9516 16.8125C18.9516 16.4344 19.271 16.125 19.6613 16.125H21.7903C22.1806 16.125 22.5 16.4344 22.5 16.8125C22.5 17.1906 22.1806 17.5 21.7903 17.5H20.371V18.875H21.7903C22.1806 18.875 22.5 19.1844 22.5 19.5625C22.5 19.9406 22.1806 20.25 21.7903 20.25H20.371V22.3125C20.371 22.6906 20.0516 23 19.6613 23C19.271 23 18.9516 22.6906 18.9516 22.3125V19.5625V16.8125Z" fill="#006073"/>
</svg>