<svg xmlns="http://www.w3.org/2000/svg" width="21" height="22" viewBox="0 0 21 22" fill="none">
  <path d="M6.76318 1.91807C6.44737 1.15521 5.61479 0.749174 4.81912 0.966547L1.20991 1.95088C0.496267 2.14775 0 2.79576 0 3.53401C0 13.6808 8.22737 21.9082 18.3742 21.9082C19.1124 21.9082 19.7605 21.4119 19.9573 20.6983L20.9417 17.0891C21.159 16.2934 20.753 15.4608 19.9901 15.145L16.0528 13.5045C15.3843 13.2256 14.6091 13.4183 14.1539 13.9802L12.4969 16.0022C9.60954 14.6365 7.27175 12.2987 5.90599 9.41129L7.92797 7.75844C8.48986 7.29908 8.68262 6.52802 8.40373 5.8595L6.76318 1.92217V1.91807Z" fill="#49762A"/>
</svg>