<svg xmlns="http://www.w3.org/2000/svg" width="36" height="40" viewBox="0 0 36 40" fill="none">
  <path fill-rule="evenodd" clip-rule="evenodd" d="M9 9C9 4.02944 13.0294 0 18 0C22.9705 0 27 4.02944 27 9C27 13.9706 22.9705 18 18 18C13.0294 18 9 13.9706 9 9ZM18 3.6C15.0176 3.6 12.6 6.01767 12.6 9C12.6 11.9823 15.0176 14.4 18 14.4C20.9824 14.4 23.4 11.9823 23.4 9C23.4 6.01767 20.9824 3.6 18 3.6Z" fill="#665DC6"/>
  <path fill-rule="evenodd" clip-rule="evenodd" d="M0 37.8C0 27.859 8.05887 19.8 18 19.8C27.941 19.8 36 27.859 36 37.8V39.6H0V37.8ZM3.7114 36H32.2886C31.4028 28.8967 25.3433 23.4 18 23.4C10.6567 23.4 4.59718 28.8967 3.7114 36Z" fill="#665DC6"/>
</svg>